# AST/ASF file generated using VICON BodyLanguage
# -----------------------------------------------
:version 1.10
:name VICON
:units
  mass 1.0
  length 0.45
  angle deg
:documentation
   .ast/.asf automatically generated from VICON data using
   VICON BodyBuilder and BodyLanguage model FoxedUp or BRILLIANT.MOD
:root
   order TX TY TZ RX RY RZ
   axis XYZ
   position 0 0 0  
   orientation 0 0 0 
:bonedata
  begin
     id 1 
     name lhipjoint
     direction 0.606768 -0.715223 0.346827 
     length 2.41543 
     axis 0 0 0  XYZ
  end
  begin
     id 2 
     name lfemur
     direction 0.34202 -0.939693 0  
     length 7.2778  
     axis 0 0 20  XYZ
    dof rx ry rz
    limits (-160.0 20.0)
           (-70.0 70.0)
           (-60.0 70.0)
  end
  begin
     id 3 
     name ltibia
     direction 0.34202 -0.939693 0   
     length 7.61811   
     axis 0 0 20   XYZ
    dof rx
    limits (-10.0 170.0)
  end
  begin
     id 4 
     name lfoot
     direction 0.0823924 -0.226371 0.97055   
     length 2.33618   
     axis -90 7.62852e-016 20   XYZ
    dof rx rz
    limits (-45.0 90.0)
           (-70.0 20.0)
  end
  begin
     id 5 
     name ltoes
     direction 1.53554e-011 -4.21934e-011 1   
     length 1.17015   
     axis -90 7.62852e-016 20   XYZ
    dof rx
    limits (-90.0 20.0)
  end
  begin
     id 6 
     name rhipjoint
     direction -0.6077 -0.714582 0.346516   
     length 2.4176  
     axis 0 0 0  XYZ 
  end
  begin
     id 7 
     name rfemur
     direction -0.34202 -0.939693 0   
     length 7.28127   
     axis 0 0 -20   XYZ
    dof rx ry rz
    limits (-160.0 20.0)
           (-70.0 70.0)
           (-70.0 60.0)
  end
  begin
     id 8 
     name rtibia
     direction -0.34202 -0.939693 0   
     length 7.77648   
     axis 0 0 -20   XYZ
    dof rx
    limits (-10.0 170.0)
 end
 begin
     id 9 
     name rfoot
     direction -0.0809463 -0.222398 0.97159   
     length 2.37533  
     axis -90 -7.62852e-016 -20   XYZ
    dof rx rz
    limits (-45.0 90.0)
           (-20.0 70.0)
  end
  begin
     id 10 
     name rtoes
     direction -1.53568e-011 -4.21714e-011 1   
     length 1.18972   
     axis -90 -7.62852e-016 -20   XYZ
    dof rx
    limits (-90.0 20.0)
  end
  begin
     id 11 
     name lowerback
     direction 0.010968 0.991932 -0.126297   
     length 2.21698   
     axis 0 0 0   XYZ
    dof rx ry rz
    limits (-20.0 45.0)
           (-30.0 30.0)
           (-30.0 30.0)
  end
  begin
     id 12 
     name upperback
     direction 0.0167007 0.997503 -0.0686276   
     length 2.22371   
     axis 0 0 0   XYZ
    dof rx ry rz
    limits (-20.0 45.0)
           (-30.0 30.0)
           (-30.0 30.0)
  end
  begin
     id 13 
     name thorax
     direction 0.0111721 0.999885 -0.0102878   
     length 2.25242   
     axis 0 0 0   XYZ
    dof rx ry rz
    limits (-20.0 45.0)
           (-30.0 30.0)
           (-30.0 30.0)
  end
  begin
     id 14 
     name lowerneck
     direction -0.0120265 0.990428 0.137508   
     length 1.57674   
     axis 0 0 0   XYZ
    dof rx ry rz
    limits (-20.0 45.0)
           (-30.0 30.0)
           (-30.0 30.0)
  end
  begin
     id 15 
     name upperneck
     direction 0.0175669 0.998907 0.0433089   
     length 1.5618   
     axis 0 0 0   XYZ
    dof rx ry rz
    limits (-20.0 45.0)
           (-30.0 30.0)
           (-30.0 30.0)
  end
  begin
     id 16
     name head
     direction 0.00754609 0.99997 0.00185367  
     length 1.60579  
     axis 0 0 0   XYZ
    dof rx ry rz
    limits (-20.0 45.0)
           (-30.0 30.0)
           (-30.0 30.0)
  end
  begin
     id 17 
     name lclavicle
     direction 0.885866 0.429166 -0.176231  
     length 3.44967  
     axis 0 0 0   XYZ
    dof ry rz
    limits (-20.0 10.0)
           (0.0 20.0)
  end
  begin
     id 18 
     name lhumerus
     direction 1 -4.48973e-011 -1.90255e-027   
     length 5.20607   
     axis 180 -30 -90   XYZ
    dof rx ry rz
    limits (-60.0 90.0)
           (-90.0 90.0)
           (-90.0 90.0)
  end
  begin
     id 19
     name lradius
     direction 1 -4.48956e-011 9.87925e-027   
     length 3.39961   
     axis 180 -30 -90   XYZ
    dof rx
    limits (-10.0 170.0)
  end
  begin
     id 20
     name lwrist
     direction 1 -4.48985e-011 1.73247e-026   
     length 1.6998   
     axis -9.60847e-015 90 90   XYZ
    dof ry
    limits (-180.0 0.0)
 end
  begin
     id 21 
     name lhand
     direction 1 -4.48798e-011 3.46119e-026   
     length 0.519693   
     axis -2.21073e-014 90 90   XYZ
    dof rx rz
    limits (-90.0 90.0)
           (-45.0 45.0)
  end
  begin
     id 22 
     name lfingers
     direction 1 -4.48938e-011 6.92797e-026   
     length 0.41899   
     axis -4.42155e-014 90 90   XYZ
    dof rx
    limits (0.0 90.0)
  end
  begin
     id 23
     name lthumb
     direction 0.707107 -6.34952e-011 0.707107   
     length 0.601588   
     axis -90 45 6.0103e-014   XYZ
    dof rx rz
    limits (-45.0 45.0)
           (-45.0 45.0)
  end
  begin
     id 24 
     name rclavicle
     direction -0.866736 0.456792 -0.200276   
     length 3.45032  
     axis 0 0 0   XYZ 
    dof ry rz
    limits (-10.0 20.0)
           (-20.0 0.0)
  end
  begin
     id 25 
     name rhumerus
     direction -1 -4.4897e-011 8.65094e-028  
     length 5.32214   
     axis 180 30 90   XYZ
    dof rx ry rz
    limits (-90.0 60.0)
           (-90.0 90.0)
           (-90.0 90.0)
  end
  begin
     id 26 
     name rradius
     direction -1 -4.48987e-011 1.08427e-026   
     length 3.51208   
     axis 180 30 90   XYZ
    dof rx
    limits (-10.0 170.0)
  end
  begin
     id 27 
     name rwrist
     direction -1 -4.48961e-011 1.73222e-026   
     length 1.75604   
     axis -9.60847e-015 -90 -90   XYZ
    dof ry
    limits (-180.0 0.0)
  end
  begin
     id 28
     name rhand
     direction -1 -4.48895e-011 3.46314e-026   
     length 0.586681   
     axis -2.21073e-014 -90 -90   XYZ
    dof rx rz
    limits (-90.0 90.0)
           (-45.0 45.0)
  end
  begin
     id 29
     name rfingers
     direction -1 -4.48968e-011 6.92916e-026   
     length 0.472997   
     axis -4.42155e-014 -90 -90   XYZ
    dof rx
    limits (0.0 90.0)
  end
  begin
     id 30
     name rthumb
     direction -0.707107 -6.34848e-011 0.707107   
     length 0.679133   
     axis -90 -45 -6.0103e-014   XYZ
    dof rx rz
    limits (-45.0 45.0)
           (-45.0 45.0)
  end
:hierarchy
  begin
    root lhipjoint rhipjoint lowerback
    lhipjoint lfemur
    lfemur ltibia
    ltibia lfoot
    lfoot ltoes
    rhipjoint rfemur
    rfemur rtibia
    rtibia rfoot
    rfoot rtoes
    lowerback upperback
    upperback thorax
    thorax lowerneck lclavicle rclavicle
    lowerneck upperneck
    upperneck head
    lclavicle lhumerus
    lhumerus lradius
    lradius lwrist
    lwrist lhand lthumb
    lhand lfingers
    rclavicle rhumerus
    rhumerus rradius
    rradius rwrist
    rwrist rhand rthumb
    rhand rfingers
  end

#!OML:ASF H:\Dans Jumps\Project 1\Capture day 1\Session 1\subject.ASF
:FULLY-SPECIFIED
:DEGREES
21
root -0.0129231 17.1771 -14.7157 12.1149 -3.49313 -1.54232
lowerback 7.14901 -0.146059 0.289426
upperback 6.84724 -0.217491 1.43288
thorax 3.08044 -0.136694 1.32643
lowerneck -14.555 0.449972 -1.72733
upperneck 30.8748 0.487697 1.908
head 12.6576 0.249711 1.10193
rclavicle -6.06293e-015 -9.14409e-015
rhumerus -22.9398 -13.1497 -78.6904
rradius 28.0215
rwrist 25.9777
rhand -19.7624 -25.8712
rfingers 7.12502
rthumb 6.56921 -55.7494
lclavicle -6.06293e-015 -9.14409e-015
lhumerus -19.826 4.34511 81.627
lradius 21.1328
lwrist 9.56594
lhand -29.3621 -6.90776
lfingers 7.12502
lthumb -2.70143 23.0549
rfemur -32.0651 -2.19607 19.4814
rtibia 37.1769
rfoot -16.1508 0.302096
rtoes 7.91703
lfemur -30.4023 9.51825 -19.7251
ltibia 35.7771
lfoot -15.0785 6.03913
ltoes 2.19777
22
root -0.0167309 17.1658 -14.726 12.1322 -3.50552 -1.54685
lowerback 7.22262 -0.137292 0.29069
upperback 6.8731 -0.20549 1.43525
thorax 3.06658 -0.130816 1.32792
lowerneck -14.5398 0.471862 -1.70015
upperneck 30.8266 0.521773 1.87683
head 12.634 0.264049 1.08954
rclavicle 7.95139e-016 -1.43125e-014
rhumerus -23.0094 -13.2001 -78.6513
rradius 27.9453
rwrist 26.0142
rhand -19.7699 -25.8819
rfingers 7.12502
rthumb 6.56191 -55.7603
lclavicle 7.95139e-016 -1.43125e-014
lhumerus -19.9297 4.43479 81.6445
lradius 21.0043
lwrist 9.43237
lhand -29.2762 -6.85864
lfingers 7.12502
lthumb -2.61842 23.105
rfemur -32.2612 -2.18413 19.503
rtibia 37.4301
rfoot -16.2246 0.282831
rtoes 7.8323
lfemur -30.6063 9.53534 -19.7194
ltibia 36.0591
lfoot -15.1647 6.09229
ltoes 2.13585
23
root -0.0209272 17.154 -14.7365 12.1481 -3.511 -1.55427
lowerback 7.29699 -0.129557 0.29155
upperback 6.90175 -0.194926 1.43919
thorax 3.05531 -0.125722 1.3313
lowerneck -14.53 0.490774 -1.66983
upperneck 30.7796 0.551397 1.84356
head 12.6122 0.276538 1.07522
rclavicle -1.17283e-014 -2.78299e-015
rhumerus -23.0801 -13.2491 -78.6114
rradius 27.875
rwrist 26.043
rhand -19.7786 -25.898
rfingers 7.12502
rthumb 6.55354 -55.7766
lclavicle -1.17283e-014 -2.78299e-015
lhumerus -20.0375 4.51371 81.6699
lradius 20.8796
lwrist 9.29361
lhand -29.1896 -6.79651
lfingers 7.12502
lthumb -2.53485 23.1682
rfemur -32.46 -2.17502 19.5302
rtibia 37.6903
rfoot -16.2983 0.259962
rtoes 7.74997
lfemur -30.8145 9.55041 -19.7082
ltibia 36.3475
lfoot -15.2522 6.14026
ltoes 2.07539
24
root -0.025431 17.142 -14.7472 12.1619 -3.51197 -1.56866
lowerback 7.37307 -0.120771 0.298402
upperback 6.93332 -0.182746 1.44459
thorax 3.04612 -0.119628 1.33276
lowerneck -14.5202 0.505354 -1.64215
upperneck 30.7288 0.573811 1.81579
head 12.589 0.286304 1.06236
rclavicle 3.47873e-015 1.31198e-014
rhumerus -23.1592 -13.292 -78.5709
rradius 27.8218
rwrist 26.0443
rhand -19.7829 -25.927
rfingers 7.12502
rthumb 6.54937 -55.8057
lclavicle 3.47873e-015 1.31198e-014
lhumerus -20.1453 4.57994 81.702
lradius 20.7551
lwrist 9.14835
lhand -29.1123 -6.73403
lfingers 7.12502
lthumb -2.46014 23.2315
rfemur -32.6583 -2.16456 19.5662
rtibia 37.9544
rfoot -16.3721 0.232515
rtoes 7.67027
lfemur -31.0256 9.56526 -19.6875
ltibia 36.6426
lfoot -15.3404 6.1855
ltoes 2.00712
25
root -0.0301952 17.1298 -14.7581 12.1739 -3.51101 -1.58842
lowerback 7.45408 -0.111478 0.30733
upperback 6.96474 -0.169763 1.45191
thorax 3.03406 -0.113092 1.335
lowerneck -14.5145 0.516376 -1.61498
upperneck 30.6854 0.591318 1.7878
head 12.5699 0.293795 1.04892
rclavicle 5.46658e-015 -1.15295e-014
rhumerus -23.2462 -13.3347 -78.5268
rradius 27.7753
rwrist 26.0386
rhand -19.783 -25.9616
rfingers 7.12502
rthumb 6.54927 -55.8403
lclavicle 5.46658e-015 -1.15295e-014
lhumerus -20.2586 4.63274 81.7416
lradius 20.6351
lwrist 9.01121
lhand -29.0317 -6.67079
lfingers 7.12502
lthumb -2.3823 23.2957
rfemur -32.8557 -2.15087 19.6092
rtibia 38.2188
rfoot -16.4437 0.198593
rtoes 7.58445
lfemur -31.2396 9.58039 -19.6596
ltibia 36.9432
lfoot -15.4288 6.2296
ltoes 1.93422
26
root -0.0350884 17.1174 -14.7692 12.184 -3.51308 -1.61626
lowerback 7.54136 -0.100037 0.323216
upperback 6.99633 -0.153556 1.46006
thorax 3.01865 -0.104685 1.33403
lowerneck -14.5098 0.524707 -1.59195
upperneck 30.6408 0.604316 1.76555
head 12.5505 0.299583 1.03774
rclavicle 1.18277e-014 -5.56597e-015
rhumerus -23.3396 -13.389 -78.4782
rradius 27.7291
rwrist 26.0422
rhand -19.7832 -25.9853
rfingers 7.12502
rthumb 6.54909 -55.8641
lclavicle 1.18277e-014 -5.56597e-015
lhumerus -20.3714 4.67749 81.7863
lradius 20.5128
lwrist 8.87116
lhand -28.967 -6.63333
lfingers 7.12502
lthumb -2.3198 23.3338
rfemur -33.0499 -2.13039 19.6606
rtibia 38.4797
rfoot -16.5125 0.162221
rtoes 7.50212
lfemur -31.454 9.59903 -19.6227
ltibia 37.2472
lfoot -15.5113 6.28128
ltoes 1.84509
27
root -0.0401396 17.105 -14.7805 12.1933 -3.51381 -1.64753
lowerback 7.63374 -0.0890049 0.341909
upperback 7.02666 -0.13765 1.46839
thorax 2.99914 -0.0963086 1.33167
lowerneck -14.5089 0.531047 -1.56942
upperneck 30.6038 0.614702 1.74293
head 12.5352 0.304078 1.02625
rclavicle -1.14301e-014 1.39149e-015
rhumerus -23.4387 -13.4516 -78.4276
rradius 27.6855
rwrist 26.044
rhand -19.78 -26.008
rfingers 7.12502
rthumb 6.5522 -55.8866
lclavicle -1.14301e-014 1.39149e-015
lhumerus -20.4863 4.70832 81.8352
lradius 20.3889
lwrist 8.74065
lhand -28.8977 -6.61351
lfingers 7.12502
lthumb -2.25293 23.3543
rfemur -33.2406 -2.10694 19.7164
rtibia 38.7347
rfoot -16.5783 0.120859
rtoes 7.416
lfemur -31.6682 9.61384 -19.5807
ltibia 37.5505
lfoot -15.5865 6.34107
ltoes 1.74765
28
root -0.04524 17.0927 -14.7918 12.2023 -3.50996 -1.67888
lowerback 7.73087 -0.0804534 0.361554
upperback 7.05452 -0.124846 1.47717
thorax 2.97451 -0.0894331 1.32936
lowerneck -14.5007 0.536542 -1.55137
upperneck 30.5621 0.624483 1.72205
head 12.5164 0.308019 1.01602
rclavicle -8.74653e-015 -7.35503e-015
rhumerus -23.5447 -13.515 -78.3749
rradius 27.6452
rwrist 26.043
rhand -19.7874 -26.0197
rfingers 7.12502
rthumb 6.54507 -55.8986
lclavicle -8.74653e-015 -7.35503e-015
lhumerus -20.6094 4.73579 81.8878
lradius 20.2697
lwrist 8.61092
lhand -28.8203 -6.60764
lfingers 7.12502
lthumb -2.1782 23.361
rfemur -33.4266 -2.08707 19.7729
rtibia 38.9827
rfoot -16.6443 0.0782785
rtoes 7.33401
lfemur -31.8805 9.62027 -19.5373
ltibia 37.8499
lfoot -15.6557 6.40813
ltoes 1.65725
